<?xml version="1.0" standalone="no"?>
<!DOCTYPE svg PUBLIC "-//W3C//DTD SVG 20010904//EN"
 "http://www.w3.org/TR/2001/REC-SVG-20010904/DTD/svg10.dtd">
<svg version="1.0" xmlns="http://www.w3.org/2000/svg"
 width="478.000000pt" height="122.000000pt" viewBox="0 0 478.000000 122.000000"
 preserveAspectRatio="xMidYMid meet">

<g transform="translate(0.000000,122.000000) scale(0.100000,-0.100000)"
fill="#000000" stroke="none">
<path d="M0 1060 l0 -100 98 0 c79 0 103 4 130 20 37 23 39 26 13 26 -11 0
-17 -4 -15 -8 3 -4 -4 -8 -16 -8 -20 0 -19 2 7 25 25 22 26 24 8 25 -11 0 -27
5 -35 11 -12 8 -9 10 14 6 26 -4 28 -3 22 23 -3 20 1 36 15 54 l20 26 -130 0
-131 0 0 -100z m195 -30 c3 -5 -3 -10 -14 -10 -12 0 -21 5 -21 10 0 6 6 10 14
10 8 0 18 -4 21 -10z"/>
<path d="M367 1123 c4 -21 8 -54 8 -73 0 -29 -4 -36 -23 -38 -28 -4 -41 -30
-21 -43 8 -5 65 -9 127 -9 l112 0 0 100 0 100 -105 0 -106 0 8 -37z"/>
<path d="M3108 1027 c-118 -34 -165 -98 -175 -241 l-6 -86 37 0 36 0 0 73 c1
133 45 187 155 187 122 0 125 -10 125 -380 l0 -290 105 0 105 0 0 271 c0 161
-4 288 -11 313 -14 57 -58 109 -114 136 -58 28 -188 36 -257 17z"/>
<path d="M4707 905 c-10 -14 -16 -25 -13 -25 14 0 65 38 59 43 -12 13 -28 6
-46 -18z"/>
<path d="M190 885 c-10 -12 -9 -15 8 -15 11 0 22 7 26 15 3 9 0 15 -8 15 -7 0
-19 -7 -26 -15z"/>
<path d="M0 780 c0 -73 2 -80 19 -80 16 0 20 8 23 38 l3 37 23 -37 c15 -24 31
-38 44 -38 19 0 19 0 -1 34 -17 26 -19 39 -12 59 15 38 -10 67 -60 67 l-39 0
0 -80z m65 30 c0 -7 -6 -15 -12 -17 -8 -3 -13 4 -13 17 0 13 5 20 13 18 6 -3
12 -11 12 -18z"/>
<path d="M150 780 l0 -80 45 0 c33 0 45 4 45 15 0 10 -10 15 -30 15 -23 0 -30
4 -30 20 0 15 7 20 25 20 16 0 25 6 25 15 0 9 -9 15 -25 15 -16 0 -25 6 -25
15 0 10 10 15 30 15 20 0 30 5 30 15 0 11 -12 15 -45 15 l-45 0 0 -80z"/>
<path d="M280 780 c0 -64 3 -80 15 -80 10 0 15 11 15 35 0 30 3 35 23 35 29 0
47 18 47 47 0 26 -27 43 -69 43 l-31 0 0 -80z m63 43 c8 -7 -11 -33 -24 -33
-5 0 -9 9 -9 20 0 19 20 27 33 13z"/>
<path d="M410 790 c0 -58 3 -71 19 -80 32 -17 69 -12 85 12 22 31 22 138 1
138 -11 0 -15 -13 -15 -54 0 -57 -15 -81 -44 -70 -12 5 -16 20 -16 65 0 46 -3
59 -15 59 -12 0 -15 -14 -15 -70z"/>
<path d="M570 780 c0 -78 1 -80 24 -80 46 0 76 18 76 44 0 14 -4 27 -9 30 -4
3 -6 17 -3 31 6 34 -14 55 -54 55 l-34 0 0 -80z m52 35 c0 -5 -5 -11 -11 -13
-6 -2 -11 4 -11 13 0 9 5 15 11 13 6 -2 11 -8 11 -13z m14 -56 c3 -6 0 -15 -7
-20 -22 -14 -29 -11 -29 11 0 21 24 27 36 9z"/>
<path d="M710 780 l0 -80 40 0 c29 0 40 4 40 15 0 9 -9 15 -25 15 -24 0 -25 2
-25 65 0 51 -3 65 -15 65 -12 0 -15 -16 -15 -80z"/>
<path d="M820 780 c0 -64 3 -80 15 -80 12 0 15 16 15 80 0 64 -3 80 -15 80
-12 0 -15 -16 -15 -80z"/>
<path d="M912 840 c-33 -31 -30 -92 4 -119 15 -12 36 -21 48 -21 12 0 31 -7
42 -15 27 -20 64 -19 64 2 0 9 -3 13 -6 10 -4 -3 -15 -2 -25 4 -18 9 -18 12
-3 40 41 81 -58 160 -124 99z m86 -22 c21 -21 15 -67 -12 -79 -34 -16 -66 3
-66 39 0 33 16 52 45 52 12 0 26 -5 33 -12z"/>
<path d="M1080 790 c0 -58 3 -71 19 -80 30 -15 66 -12 84 8 23 25 24 142 2
142 -11 0 -15 -13 -15 -54 0 -57 -15 -81 -44 -70 -12 5 -16 20 -16 65 0 46 -3
59 -15 59 -12 0 -15 -14 -15 -70z"/>
<path d="M1240 780 l0 -80 45 0 c33 0 45 4 45 15 0 10 -10 15 -30 15 -23 0
-30 4 -30 20 0 15 7 20 25 20 16 0 25 6 25 15 0 9 -9 15 -25 15 -16 0 -25 6
-25 15 0 10 10 15 30 15 20 0 30 5 30 15 0 11 -12 15 -45 15 l-45 0 0 -80z"/>
<path d="M3550 765 c0 -88 1 -95 20 -95 19 0 20 7 20 95 0 88 -1 95 -20 95
-19 0 -20 -7 -20 -95z"/>
<path d="M3620 858 c0 -2 15 -43 34 -93 43 -117 55 -120 100 -21 47 102 51
116 32 116 -9 0 -23 -23 -37 -60 -12 -33 -26 -63 -30 -66 -4 -2 -16 24 -27 58
-16 55 -21 63 -45 66 -15 2 -27 2 -27 0z"/>
<path d="M3830 765 l0 -95 70 0 c40 0 70 4 70 10 0 6 -20 10 -45 10 -45 0 -45
0 -45 35 0 34 1 35 40 35 22 0 40 5 40 10 0 6 -18 10 -40 10 -36 0 -40 3 -40
25 0 23 4 25 40 25 29 0 40 4 40 15 0 12 -14 15 -65 15 l-65 0 0 -95z"/>
<path d="M4000 765 c0 -95 0 -95 25 -95 23 0 25 4 25 40 0 49 11 51 33 5 17
-35 50 -57 75 -48 8 4 2 16 -18 39 -16 19 -30 37 -30 39 0 3 9 14 20 25 47 47
12 90 -73 90 l-57 0 0 -95z m95 40 c0 -23 -5 -31 -22 -33 -20 -3 -23 1 -23 33
0 32 3 36 23 33 17 -2 22 -10 22 -33z"/>
<path d="M4216 841 c-28 -31 -16 -63 32 -89 23 -13 42 -30 42 -38 0 -21 -29
-29 -61 -17 -26 10 -29 9 -29 -8 0 -16 7 -19 48 -19 53 0 82 20 82 58 0 21
-37 57 -71 67 -12 4 -19 14 -17 23 3 13 14 17 41 16 25 -1 37 3 37 12 0 23
-83 18 -104 -5z"/>
<path d="M4360 765 c0 -95 0 -95 25 -95 25 0 25 0 25 95 0 95 0 95 -25 95 -25
0 -25 0 -25 -95z"/>
<path d="M4430 845 c0 -10 11 -15 35 -15 l35 0 0 -80 c0 -73 2 -80 20 -80 18
0 20 7 20 80 l0 80 35 0 c24 0 35 5 35 15 0 12 -17 15 -90 15 -73 0 -90 -3
-90 -15z"/>
<path d="M4630 765 l0 -95 70 0 c40 0 70 4 70 10 0 6 -20 10 -45 10 -45 0 -45
0 -45 35 0 34 1 35 40 35 22 0 40 5 40 10 0 6 -18 10 -40 10 -36 0 -40 3 -40
25 0 23 4 25 45 25 33 0 45 4 45 15 0 12 -14 15 -70 15 l-70 0 0 -95z"/>
<path d="M0 560 c0 -73 2 -80 20 -80 16 0 20 7 20 35 0 28 4 35 20 35 11 0 20
5 20 10 0 6 -9 10 -20 10 -13 0 -20 7 -20 20 0 15 7 20 25 20 16 0 25 6 25 15
0 11 -12 15 -45 15 l-45 0 0 -80z"/>
<path d="M120 560 c0 -64 3 -80 15 -80 10 0 15 10 15 30 0 17 4 30 9 30 5 0
19 -13 31 -30 12 -16 28 -30 36 -30 18 0 18 11 -1 36 -9 13 -12 31 -8 58 7 46
-12 66 -64 66 l-33 0 0 -80z m65 30 c0 -22 -29 -18 -33 3 -3 14 1 18 15 15 10
-2 18 -10 18 -18z"/>
<path d="M286 570 c-14 -39 -26 -75 -26 -81 0 -18 29 -9 35 11 5 15 15 20 40
20 24 0 34 -5 38 -20 3 -11 12 -20 21 -20 21 0 20 2 -12 85 -21 52 -33 71 -48
73 -18 3 -25 -8 -48 -68z m63 -12 c1 -5 -6 -8 -14 -8 -16 0 -19 9 -8 36 6 16
7 16 14 -2 4 -10 8 -22 8 -26z"/>
<path d="M440 560 c0 -64 3 -80 15 -80 11 0 15 13 15 53 l1 52 32 -52 c19 -32
39 -53 49 -53 16 0 18 10 18 80 0 64 -3 80 -15 80 -11 0 -15 -12 -15 -52 l0
-53 -32 53 c-20 31 -40 52 -50 52 -16 0 -18 -10 -18 -80z"/>
<path d="M632 617 c-33 -35 -30 -89 6 -119 16 -13 27 -29 24 -36 -6 -18 15
-15 36 6 10 9 27 22 38 28 15 10 17 14 7 25 -10 10 -16 10 -25 1 -21 -21 -57
-14 -70 13 -23 51 32 101 70 63 9 -9 15 -9 25 1 10 10 8 15 -7 27 -30 22 -79
18 -104 -9z"/>
<path d="M816 632 c-5 -9 -56 -142 -56 -148 0 -13 31 -1 40 16 7 13 21 20 40
20 20 0 31 -6 35 -20 7 -22 35 -28 35 -8 0 7 -12 43 -26 80 -19 50 -31 68 -44
68 -10 0 -21 -4 -24 -8z m29 -80 c-22 -5 -27 1 -19 23 7 17 8 17 21 -1 12 -17
12 -19 -2 -22z"/>
<path d="M940 560 c0 -64 3 -80 15 -80 12 0 15 16 15 80 0 64 -3 80 -15 80
-12 0 -15 -16 -15 -80z"/>
<path d="M1022 628 c-23 -23 -14 -55 24 -77 40 -24 37 -45 -6 -36 -34 7 -48
-10 -21 -24 76 -41 130 37 56 80 -37 22 -38 44 0 35 27 -7 39 3 24 21 -14 16
-61 17 -77 1z"/>
<path d="M1140 560 l0 -80 45 0 c33 0 45 4 45 15 0 9 -9 15 -25 15 -18 0 -25
5 -25 20 0 13 7 20 20 20 11 0 20 5 20 10 0 6 -9 10 -20 10 -13 0 -20 7 -20
20 0 15 7 20 25 20 16 0 25 6 25 15 0 11 -12 15 -45 15 l-45 0 0 -80z"/>
<path d="M3550 536 c0 -50 2 -56 21 -56 36 0 59 19 59 49 0 32 -13 46 -53 56
l-27 7 0 -56z m58 0 c4 -28 -10 -46 -35 -46 -8 0 -13 15 -13 41 0 36 2 40 23
37 16 -2 23 -11 25 -32z"/>
<path d="M3677 583 c-4 -3 -7 -28 -7 -55 0 -48 0 -48 33 -47 23 1 26 3 10 6
-14 3 -23 12 -23 23 0 11 9 20 23 23 l22 4 -22 2 c-28 1 -31 31 -3 31 11 0 20
5 20 10 0 11 -43 14 -53 3z"/>
<path d="M3837 583 c-11 -10 -8 -103 3 -103 6 0 10 8 10 19 0 10 9 21 20 24
23 6 37 34 24 47 -14 12 -50 21 -57 13z m41 -30 c-5 -25 -28 -28 -28 -4 0 12
6 21 16 21 9 0 14 -7 12 -17z"/>
<path d="M3936 540 c-10 -28 -16 -54 -12 -57 3 -3 8 2 12 11 8 20 54 22 54 1
0 -8 5 -15 11 -15 11 0 7 21 -17 78 -7 17 -17 32 -22 32 -4 0 -16 -23 -26 -50z
m44 -12 c0 -5 -7 -8 -15 -8 -15 0 -20 21 -8 33 7 7 23 -11 23 -25z"/>
<path d="M4048 584 c-11 -11 -10 -62 2 -85 12 -21 50 -25 68 -7 14 14 16 98 3
98 -6 0 -11 -21 -13 -47 -3 -40 -6 -48 -23 -48 -17 0 -21 8 -25 48 -3 27 -8
45 -12 41z"/>
<path d="M4230 535 l0 -55 33 1 c23 1 26 3 10 6 -27 5 -31 39 -5 46 16 4 16 5
0 6 -25 1 -23 31 2 31 11 0 20 5 20 10 0 6 -13 10 -30 10 -30 0 -30 -1 -30
-55z"/>
<path d="M4320 580 c0 -5 7 -10 15 -10 11 0 15 -12 15 -45 0 -25 5 -45 10 -45
6 0 10 20 10 45 0 33 4 45 15 45 8 0 15 5 15 10 0 6 -18 10 -40 10 -22 0 -40
-4 -40 -10z"/>
<path d="M4490 536 c0 -50 2 -56 21 -56 36 0 59 19 59 49 0 32 -13 46 -53 56
l-27 7 0 -56z m58 0 c4 -28 -10 -46 -35 -46 -8 0 -13 15 -13 41 0 36 2 40 23
37 16 -2 23 -11 25 -32z"/>
<path d="M4617 583 c-4 -3 -7 -28 -7 -55 0 -48 0 -48 33 -47 23 1 26 3 10 6
-14 3 -23 12 -23 23 0 11 9 20 23 23 l22 4 -22 2 c-28 1 -31 31 -3 31 11 0 20
5 20 10 0 11 -43 14 -53 3z"/>
<path d="M4723 583 c-20 -7 -15 -41 7 -53 27 -14 25 -37 -2 -43 -16 -4 -13 -5
7 -4 38 2 48 39 16 57 -28 14 -27 30 2 30 18 0 19 2 7 10 -16 11 -19 11 -37 3z"/>
<path d="M4231 403 c-1 -6 -4 -20 -7 -30 -5 -17 -5 -17 6 0 6 10 9 23 6 30 -3
9 -5 9 -5 0z"/>
<path d="M3551 343 c1 -32 4 -48 6 -36 2 12 14 24 27 27 48 12 39 66 -10 66
-23 0 -24 -3 -23 -57z m46 31 c3 -9 0 -20 -8 -25 -23 -14 -29 -11 -29 16 0 28
27 35 37 9z"/>
<path d="M3637 349 c-10 -28 -16 -53 -13 -56 3 -3 8 2 12 11 8 21 50 21 58 0
4 -9 9 -14 12 -11 10 9 -27 107 -39 107 -7 0 -20 -23 -30 -51z m43 -6 c0 -7
-7 -13 -15 -13 -16 0 -19 9 -9 35 5 13 8 14 15 3 5 -7 9 -19 9 -25z"/>
<path d="M3725 370 c8 -16 15 -40 15 -55 0 -14 5 -25 10 -25 6 0 10 11 10 25
0 15 7 39 15 55 9 17 11 30 6 30 -5 0 -13 -9 -16 -20 -3 -11 -10 -20 -15 -20
-5 0 -12 9 -15 20 -3 11 -11 20 -16 20 -5 0 -3 -13 6 -30z"/>
<path d="M3809 384 c-12 -14 -10 -19 14 -38 34 -27 34 -36 1 -36 -14 0 -23 -4
-19 -10 9 -15 31 -12 49 5 18 19 11 42 -15 50 -26 9 -25 39 1 32 11 -3 20 -1
20 4 0 15 -37 10 -51 -7z"/>
<path d="M3930 344 l0 -56 27 7 c40 10 53 24 53 56 0 30 -23 49 -59 49 -19 0
-21 -6 -21 -56z m55 30 c9 -9 14 -23 11 -31 -3 -8 -6 -19 -6 -24 0 -5 -9 -9
-20 -9 -17 0 -20 7 -20 40 0 43 9 49 35 24z"/>
<path d="M4040 345 c0 -54 0 -55 30 -55 17 0 30 5 30 10 0 6 -11 10 -25 10
-32 0 -34 27 -2 33 l22 4 -22 2 c-35 2 -31 39 5 44 25 4 25 4 -5 6 l-33 1 0
-55z"/>
<path d="M4162 348 c3 -49 5 -53 31 -56 15 -2 27 1 27 7 0 6 -9 11 -20 11 -17
0 -20 7 -20 45 0 25 -5 45 -11 45 -6 0 -9 -21 -7 -52z"/>
<path d="M4266 353 c-18 -53 -20 -77 -5 -50 12 21 59 23 59 2 0 -8 5 -15 11
-15 6 0 9 6 6 14 -3 8 -11 32 -18 55 -7 23 -18 41 -25 41 -7 0 -19 -21 -28
-47z m40 -20 c-2 -3 -11 -3 -19 -1 -11 2 -12 9 -5 28 l10 25 9 -24 c5 -13 7
-26 5 -28z"/>
<path d="M4360 344 l0 -56 33 7 c41 9 50 17 50 49 0 36 -20 56 -54 56 -28 0
-29 -1 -29 -56z m55 33 c24 -18 13 -67 -15 -67 -17 0 -20 7 -20 40 0 43 6 48
35 27z"/>
<path d="M4480 385 c-28 -34 -5 -95 36 -95 36 0 59 71 32 98 -17 17 -53 15
-68 -3z m58 -38 c3 -34 1 -37 -22 -37 -30 0 -46 41 -26 66 22 26 45 12 48 -29z"/>
<path d="M4591 359 c-1 -57 17 -78 54 -61 21 10 25 18 25 57 0 25 -4 45 -10
45 -5 0 -10 -20 -10 -45 0 -38 -3 -45 -20 -45 -19 0 -24 10 -33 70 -3 14 -5 4
-6 -21z"/>
<path d="M4700 346 c0 -31 5 -56 10 -56 6 0 10 11 10 25 0 14 5 25 10 25 6 0
16 -11 22 -25 6 -14 15 -25 20 -25 5 0 2 14 -7 30 -10 19 -11 30 -5 30 6 0 10
10 8 23 -2 17 -11 23 -35 25 l-33 3 0 -55z m48 21 c2 -10 -3 -17 -12 -17 -10
0 -16 9 -16 21 0 24 23 21 28 -4z"/>
<path d="M40 363 c0 -10 -7 -30 -14 -45 -15 -27 -14 -28 14 -28 16 0 31 4 34
9 4 5 -4 7 -16 3 -17 -4 -20 -2 -15 12 4 10 7 21 7 26 0 5 7 16 16 24 14 15
14 16 -5 16 -13 0 -21 -6 -21 -17z"/>
<path d="M142 341 c-15 -49 -15 -51 2 -51 14 0 46 36 46 52 0 5 -7 8 -15 8 -9
0 -12 6 -9 15 4 8 2 15 -3 15 -6 0 -15 -17 -21 -39z m19 -34 c-8 -8 -11 -7
-11 4 0 20 13 34 18 19 3 -7 -1 -17 -7 -23z"/>
<path d="M301 339 c-14 -40 -14 -52 0 -47 10 3 24 78 15 78 -2 0 -9 -14 -15
-31z"/>
<path d="M100 336 c0 -8 -3 -22 -7 -32 -4 -11 -2 -15 7 -12 16 5 25 58 10 58
-5 0 -10 -6 -10 -14z"/>
<path d="M196 334 c-10 -27 -7 -44 9 -44 18 0 20 16 3 23 -10 4 -10 6 0 6 7 1
11 5 8 10 -4 5 2 7 13 4 13 -3 17 -11 13 -25 -3 -14 -1 -19 6 -14 7 4 12 13
12 21 0 8 8 19 18 24 13 8 7 10 -29 11 -34 0 -49 -4 -53 -16z"/>
<path d="M334 325 c-8 -31 -1 -40 23 -30 17 7 17 8 -2 15 -11 5 -14 9 -7 9 7
1 10 5 7 11 -3 6 1 7 9 4 9 -3 16 -1 16 5 0 23 -40 11 -46 -14z"/>
<path d="M63 246 c-13 -6 -23 -18 -23 -26 0 -8 -7 -27 -14 -42 -15 -28 -15
-28 19 -28 19 0 36 4 39 9 3 4 -6 6 -21 3 -19 -4 -24 -1 -21 9 3 8 12 13 21
13 9 -1 18 4 21 11 3 9 -2 11 -15 8 -15 -4 -18 -2 -13 12 4 10 14 15 25 12 11
-3 19 -1 19 4 0 5 -5 9 -11 9 -5 0 -7 5 -4 10 3 6 5 9 3 9 -2 -1 -13 -6 -25
-13z"/>
<path d="M232 207 c-15 -41 -15 -57 -1 -57 6 0 9 6 6 13 -2 6 2 27 10 45 7 17
10 32 5 32 -4 0 -13 -15 -20 -33z"/>
<path d="M312 217 c-6 -6 -14 -25 -18 -41 -5 -21 -4 -28 6 -24 8 2 14 13 15
24 2 10 6 27 10 37 8 20 2 22 -13 4z"/>
<path d="M110 186 c0 -13 -7 -29 -15 -36 -29 -24 12 -42 45 -20 13 9 13 12 -3
24 -15 12 -16 14 -2 20 22 8 19 36 -5 36 -14 0 -20 -7 -20 -24z m30 10 c0 -3
-4 -8 -10 -11 -5 -3 -10 -1 -10 4 0 6 5 11 10 11 6 0 10 -2 10 -4z m-15 -56
c3 -5 -1 -10 -10 -10 -9 0 -13 5 -10 10 3 6 8 10 10 10 2 0 7 -4 10 -10z"/>
<path d="M166 188 c-22 -31 -20 -37 10 -35 21 2 27 8 30 30 3 34 -18 36 -40 5z
m16 -10 c-7 -7 -12 -8 -12 -2 0 6 3 14 7 17 3 4 9 5 12 2 2 -3 -1 -11 -7 -17z"/>
<path d="M260 196 c0 -8 -3 -22 -7 -32 -4 -11 -2 -15 7 -12 16 5 25 58 10 58
-5 0 -10 -6 -10 -14z"/>
<path d="M338 185 c-13 -29 -6 -40 19 -30 17 7 17 8 -2 15 -19 7 -19 7 3 14
25 8 30 26 7 26 -9 0 -21 -11 -27 -25z"/>
<path d="M40 77 c0 -12 -7 -33 -16 -45 -14 -20 -14 -22 4 -22 13 0 19 6 18 17
-1 12 5 17 17 15 10 -2 17 3 17 12 0 10 -6 13 -15 10 -11 -5 -13 -2 -9 11 4
10 14 15 25 12 11 -3 19 -1 19 4 0 5 -13 9 -30 9 -25 0 -30 -4 -30 -23z"/>
<path d="M213 78 c-6 -7 -13 -25 -17 -40 -6 -26 -5 -27 31 -23 50 4 50 4 33
15 -12 8 -12 10 3 16 24 9 21 27 -3 21 -12 -3 -23 1 -28 10 -7 12 -10 12 -19
1z m27 -33 c0 -8 -7 -15 -15 -15 -16 0 -20 12 -8 23 11 12 23 8 23 -8z"/>
<path d="M462 78 c-6 -7 -14 -26 -18 -42 -5 -22 -4 -28 7 -24 8 3 14 11 15 19
0 8 4 22 8 32 10 22 3 32 -12 15z"/>
<path d="M177 73 c-4 -3 -24 -6 -45 -5 -37 2 -39 0 -39 -28 0 -37 5 -38 17 -5
12 32 32 33 24 1 -5 -20 -2 -23 21 -23 15 0 24 4 22 11 -2 6 0 19 5 29 10 19
6 32 -5 20z m-13 -28 c-4 -8 -10 -15 -15 -15 -4 0 -6 7 -3 15 4 8 10 15 15 15
4 0 6 -7 3 -15z"/>
<path d="M288 40 c-6 -37 5 -39 20 -4 13 28 37 23 29 -7 -7 -27 8 -23 21 6 13
28 9 31 -34 33 -28 2 -32 -1 -36 -28z"/>
<path d="M373 58 c0 -7 -4 -21 -8 -32 -6 -13 -4 -17 5 -14 15 5 26 58 12 58
-5 0 -9 -6 -9 -12z"/>
<path d="M410 56 c0 -8 -3 -22 -7 -32 -4 -11 -2 -15 7 -12 16 5 25 58 10 58
-5 0 -10 -6 -10 -14z"/>
<path d="M488 45 c-13 -29 -6 -40 19 -30 17 7 17 8 -2 15 -19 7 -19 7 3 14 25
8 30 26 7 26 -9 0 -21 -11 -27 -25z"/>
</g>
</svg>
